<svg width="22" height="27" viewBox="0 0 22 27" fill="none" xmlns="http://www.w3.org/2000/svg">
<path d="M5.43373 26.483C4.90165 26.129 4.43008 25.6916 4.03714 25.1876C3.60491 24.6674 3.20443 24.1216 2.83789 23.5532C1.97773 22.2931 1.30318 20.9159 0.834921 19.4638C0.272403 17.7771 0 16.1604 0 14.5791C0 12.8131 0.38204 11.2714 1.12925 9.97604C1.68315 8.96354 2.49752 8.11743 3.48811 7.52525C4.44811 6.92898 5.55116 6.60266 6.68105 6.5807C7.07659 6.5807 7.50248 6.63804 7.95452 6.74768C8.27921 6.83961 8.67474 6.98466 9.15799 7.16514C9.77279 7.40212 10.111 7.54718 10.2257 7.5826C10.5858 7.71416 10.8885 7.77151 11.1264 7.77151C11.3069 7.77151 11.5615 7.71416 11.8508 7.62646C12.0136 7.56911 12.3206 7.4679 12.76 7.27984C13.1951 7.12129 13.5375 6.98551 13.8099 6.8843C14.2274 6.76117 14.6314 6.64732 14.9915 6.58997C15.4184 6.52267 15.8516 6.50484 16.2826 6.53684C17.0295 6.58566 17.7652 6.74393 18.4661 7.00659C19.6122 7.4679 20.5391 8.18813 21.2289 9.21196C20.9373 9.39168 20.6637 9.59897 20.4117 9.83098C19.8632 10.3172 19.396 10.8881 19.0278 11.5219C18.5465 12.3881 18.2969 13.3638 18.3033 14.3547C18.321 15.5717 18.6331 16.6436 19.2479 17.5704C19.6999 18.2574 20.2873 18.8448 20.9742 19.2968C21.3259 19.5338 21.6287 19.6965 21.9188 19.8062C21.783 20.2279 21.6379 20.636 21.4667 21.0409C21.0785 21.9486 20.6079 22.819 20.0609 23.6409C19.5734 24.3485 19.1914 24.8756 18.9013 25.2264C18.4492 25.762 18.0141 26.171 17.5747 26.456C17.0914 26.7765 16.5205 26.9477 15.9402 26.9477C15.5473 26.9628 15.1544 26.9153 14.7764 26.8069C14.4517 26.6972 14.1304 26.5783 13.8141 26.4425C13.4854 26.2915 13.1463 26.1639 12.7996 26.0605C11.9425 25.8404 11.0438 25.8389 10.186 26.0563C9.83436 26.1575 9.49617 26.2756 9.1622 26.4206C8.69245 26.618 8.38041 26.7504 8.19994 26.8069C7.83982 26.9123 7.46622 26.9781 7.08839 27C6.50395 27 5.95914 26.833 5.4194 26.4948L5.43373 26.483ZM13.142 5.72385C12.3779 6.10589 11.6484 6.26865 10.924 6.21552C10.8101 5.48602 10.924 4.73965 11.2267 3.92244C11.4845 3.2301 11.8654 2.5901 12.3509 2.03333C12.8637 1.44722 13.4859 0.966801 14.1827 0.619022C14.9248 0.236983 15.6324 0.0303608 16.3088 0C16.3965 0.764079 16.3088 1.51551 16.028 2.32766C15.7681 3.04559 15.3879 3.71407 14.9038 4.30448C14.4096 4.8914 13.8032 5.37368 13.1201 5.723L13.142 5.72385Z" fill="black"/>
</svg>
